<svg width="1080" height="1080" viewBox="0 0 1080 1080" fill="none" xmlns="http://www.w3.org/2000/svg">
<g clip-path="url(#clip0_224_896)">
<path d="M1080 0H0V1080H1080V0Z" fill="#FFF3D7"/>
<path d="M1012.8 1015.51C889.39 971.27 809.12 1017.62 787.96 1118.58H1525.3C1524.77 1057.13 1505.27 941.07 1367.28 930.03C1178.72 914.95 1146.04 1063.27 1012.8 1015.51Z" fill="#FFEDC3"/>
<path d="M1012.8 1042.05C889.39 997.81 809.12 1044.16 787.96 1145.12H1525.3C1524.77 1083.67 1505.27 967.61 1367.28 956.57C1178.72 941.49 1146.04 1089.82 1012.8 1042.05Z" fill="#FF8700"/>
<path opacity="0.4" d="M-354.53 18.19C-287.04 -12.02 -201.21 -7.71999 -128.26 27.56C-54.21 63.37 13.99 104 95.68 120.26C193 139.63 294.65 132.09 392.77 124.21C540.78 112.35 724.61 153.18 765.16 296.04C796.71 407.19 722.45 530.79 763.11 638.95C799.2 734.93 908.4 777.23 985.73 844.57C1098.45 942.72 1143.94 1113.35 1088.9 1252.3C1033.88 1391.26 878.91 1485.3 731.02 1463.66C545.42 1436.52 424.36 1261.28 272.11 1151.71C168.63 1077.24 44.79 1031.33 -82.24 1020.35C-159.42 1013.69 -245.75 1016.58 -302.88 964.26C-389.61 884.82 -348.86 742.09 -377.61 628.02C-414.17 482.91 -490.8 327.07 -467.83 172.61C-456.23 94.67 -412.03 43.92 -354.53 18.19Z" fill="#FFE6B1"/>
<g opacity="0.63">
<path d="M989.22 1016.39L997.28 1031.01L971 1028.78L980.46 1015.65C980.46 1015.65 955.76 994.49 986.61 965.05C986.6 965.05 1015.1 990.7 989.22 1016.39Z" fill="#F7C369"/>
<path d="M32.9801 561.76L19.3101 552.18L43.8701 542.59L41.1801 558.55C41.1801 558.55 72.6801 566.64 57.9701 606.68C57.9701 606.69 21.0801 596.23 32.9801 561.76Z" fill="#F7C369"/>
<path d="M808.27 369.29C809.52 371 811.91 371.4 813.65 370.21L864.6 335.31C867.03 333.65 870.34 334.19 872.09 336.56L873.59 338.57C875.94 341.71 880.33 342.46 883.58 340.27L910.36 322.23C913.73 319.95 914.61 315.36 912.31 312L898.75 292.18C896.46 288.84 891.91 287.99 888.57 290.26L862.14 308.25C858.88 310.47 857.95 314.86 860.05 318.2L861.7 320.85C863.24 323.33 862.57 326.58 860.18 328.25L809.2 363.76C807.39 365.02 806.97 367.52 808.27 369.29ZM906.23 312.17L906.49 312.54C906.9 313.13 906.76 313.95 906.16 314.36L879.65 332.8C879.06 333.21 878.24 333.07 877.83 332.47L877.57 332.1C877.16 331.51 877.3 330.69 877.9 330.28L904.4 311.84C905 311.44 905.82 311.58 906.23 312.17ZM898.12 303.88C898.7 303.47 899.53 303.62 899.94 304.21L900.19 304.58C900.6 305.17 900.46 305.99 899.86 306.41L873.36 324.85C872.77 325.26 871.95 325.12 871.54 324.52L871.28 324.15C870.87 323.57 871.01 322.74 871.61 322.33L898.12 303.88ZM865.32 315.2L891.81 296.76C892.4 296.35 893.22 296.49 893.64 297.09L893.89 297.46C894.3 298.05 894.16 298.87 893.57 299.28L867.06 317.72C866.47 318.13 865.65 317.98 865.23 317.39L864.99 317.02C864.57 316.43 864.73 315.61 865.32 315.2Z" fill="#F7C369"/>
<path d="M42.94 415.62C40.95 416.35 39.89 418.52 40.54 420.53L59.68 479.23C60.59 482.03 59.13 485.05 56.38 486.07L54.01 486.95C50.34 488.31 48.39 492.31 49.57 496.05L59.35 526.83C60.59 530.71 64.74 532.85 68.62 531.58L91.45 524.16C95.3 522.9 97.41 518.78 96.16 514.93L86.34 484.51C85.14 480.77 81.19 478.64 77.39 479.7L74.38 480.54C71.57 481.32 68.64 479.76 67.71 477L48 418.08C47.3 415.98 45.01 414.88 42.94 415.62ZM70.17 525.71L69.75 525.85C69.06 526.07 68.32 525.7 68.09 525.02L57.86 494.4C57.63 493.72 58 492.97 58.68 492.75L59.1 492.61C59.79 492.38 60.53 492.75 60.76 493.44L70.99 524.06C71.22 524.73 70.85 525.49 70.17 525.71ZM80.41 520.26C80.64 520.94 80.27 521.69 79.58 521.91L79.15 522.05C78.47 522.28 77.73 521.91 77.5 521.22L67.26 490.6C67.04 489.92 67.41 489.17 68.1 488.94L68.52 488.8C69.2 488.57 69.95 488.95 70.18 489.63L80.41 520.26ZM78.79 485.6L89.01 516.22C89.25 516.91 88.87 517.65 88.19 517.88L87.76 518.02C87.08 518.24 86.33 517.88 86.11 517.2L75.87 486.57C75.65 485.89 76.02 485.14 76.71 484.91L77.13 484.77C77.81 484.55 78.56 484.92 78.79 485.6Z" fill="#F7C369"/>
<path d="M870.66 73.65C861.71 68.73 857.64 58.96 861.57 51.81C865.5 44.65 875.93 42.84 884.88 47.75C893.83 52.67 897.89 62.44 893.97 69.59C890.03 76.74 879.6 78.56 870.66 73.65Z" fill="#F7C369"/>
<path d="M863.25 50.68C863.25 50.68 849.17 45.31 829.11 31.63C809.05 17.94 803.19 19.53 801.72 25.59C800.39 31.06 812.92 36.13 823.86 39.67C833.19 42.68 861.6 53.65 861.6 53.65L863.25 50.68Z" fill="#F7C369"/>
<path d="M484.77 1049.23C484.77 1049.23 492.59 1031.76 511.39 1007.31C530.19 982.86 528.6 975.32 521.01 973.02C514.17 970.95 506.41 987.28 501.57 1000.06C497.16 1011.73 481.13 1046.91 481.13 1046.91L484.77 1049.23Z" fill="#F7C369"/>
<path d="M483.48 1047.92C489.31 1050.99 494.49 1058.23 481.96 1075.84C469.41 1093.45 464.15 1096.04 468.45 1089.19C472.75 1082.34 483.36 1066.05 480.09 1063.4C476.82 1060.75 464.18 1092.12 460.92 1090.13C457.66 1088.15 473.53 1062.71 470.61 1059.74C467.67 1056.77 458.62 1086.53 455.36 1085.85C452.1 1085.17 462.65 1036.91 483.48 1047.92Z" fill="#F7C369"/>
<path d="M315.78 87.1C315.78 87.1 329.2 100.74 345.12 127.17C361.05 153.59 368.65 154.85 373.55 148.63C377.98 143.01 365.6 129.84 355.45 120.67C346.2 112.31 319.27 84.56 319.27 84.56L315.78 87.1Z" fill="#F7C369"/>
<path d="M317.47 86.38C312.49 90.67 303.86 92.88 292.02 74.78C280.19 56.68 279.69 50.85 284.51 57.34C289.33 63.84 300.63 79.65 304.29 77.57C307.95 75.49 283.34 52.29 286.38 49.98C289.41 47.66 307.33 71.72 311.16 70.07C314.98 68.43 290.56 49.14 292.4 46.36C294.21 43.57 335.33 70.99 317.47 86.38Z" fill="#F7C369"/>
<path d="M971.62 513.18C971.62 513.18 968.73 509.74 942.02 494.31C910.45 476.08 906.25 473.05 902.84 480.2C899.17 487.86 914.89 491.49 929.89 499.92C940.75 506.04 969.36 516.87 969.36 516.87L971.62 513.18Z" fill="#F7C369"/>
<path d="M969.36 516.88C969.36 516.88 1019.52 542.18 1026.16 544.36C1032.8 546.55 1030.57 527.19 1003.83 515.96C977.09 504.72 973.95 513.28 969.36 516.88Z" fill="#F7C369"/>
<path d="M318.42 913.59C318.42 913.59 315.54 910.15 288.82 894.73C257.25 876.5 253.05 873.46 249.63 880.61C245.97 888.27 261.69 891.9 276.69 900.34C287.55 906.46 316.16 917.29 316.16 917.29L318.42 913.59Z" fill="#F7C369"/>
<path d="M316.16 917.28C316.16 917.28 366.32 942.58 372.96 944.76C379.6 946.95 377.36 927.58 350.63 916.35C323.89 905.12 320.75 913.68 316.16 917.28Z" fill="#F7C369"/>
<path d="M106.85 769.35C106.85 769.35 101.7 733.58 123.98 706.75C123.98 706.75 108.15 727.55 109.78 768.89L106.85 769.35Z" fill="#F7C369"/>
<path d="M106.58 753.16C106.58 753.16 89.0901 760.4 86.7501 736.74C86.7501 736.73 106.57 731.78 106.58 753.16Z" fill="#F7C369"/>
<path d="M109.4 732.51C109.4 732.51 95.39 737.89 93.23 719.11C93.23 719.11 113.03 718.46 109.4 732.51Z" fill="#F7C369"/>
<path d="M112.32 736.3C112.32 736.3 118.37 750.87 134.83 733.05C134.83 733.05 118.06 719.44 112.32 736.3Z" fill="#F7C369"/>
<path d="M116.89 717.06C116.89 717.06 98.98 720.23 104.18 699.77C104.17 699.76 123.94 705.18 116.89 717.06Z" fill="#F7C369"/>
<path d="M116.89 717.06C116.89 717.06 120.7 733.59 139.06 717.1C139.06 717.1 122.69 703.97 116.89 717.06Z" fill="#F7C369"/>
<path d="M123.98 706.75C123.98 706.75 114.3 695.29 133.03 688.37C133.03 688.37 139.5 708.12 123.98 706.75Z" fill="#F7C369"/>
<path d="M109.9 754.6C109.9 754.6 121.26 765.52 131.75 749.79C131.76 749.78 114.96 737.23 109.9 754.6Z" fill="#F7C369"/>
<path d="M1137.86 193.16C1137.86 193.16 1102.87 202.24 1073.74 183.07C1073.74 183.07 1096.16 196.5 1137.08 190.3L1137.86 193.16Z" fill="#F7C369"/>
<path d="M1084.78 188.97C1084.78 188.97 1089.92 206.41 1068.99 203.52C1068.99 203.52 1072.19 183.28 1084.78 188.97Z" fill="#F7C369"/>
<path d="M1084.78 188.97C1084.78 188.97 1100.78 183.36 1082.36 166.92C1082.36 166.92 1071.12 184.65 1084.78 188.97Z" fill="#F7C369"/>
<path d="M1073.75 183.07C1073.75 183.07 1063.43 193.96 1054.48 176.1C1054.48 176.1 1073.39 167.49 1073.75 183.07Z" fill="#F7C369"/>
<path d="M1027.76 105.78C1027.76 99.68 1032.71 94.73 1038.81 94.73C1044.91 94.73 1049.85 99.68 1049.85 105.78C1049.85 111.88 1044.91 116.82 1038.81 116.82C1032.71 116.82 1027.76 111.88 1027.76 105.78Z" stroke="#F7C369" stroke-width="3.7048" stroke-miterlimit="10"/>
<path d="M1048.7 6.80001C1048.7 -0.179986 1054.36 -5.82999 1061.34 -5.82999C1068.31 -5.82999 1073.97 -0.179986 1073.97 6.80001C1073.97 13.78 1068.31 19.44 1061.34 19.44C1054.35 19.43 1048.7 13.77 1048.7 6.80001Z" stroke="#F7C369" stroke-width="3.7048" stroke-miterlimit="10"/>
<path d="M516.03 1044.13C516.03 1037.15 521.69 1031.5 528.67 1031.5C535.64 1031.5 541.31 1037.15 541.31 1044.13C541.31 1051.11 535.65 1056.77 528.67 1056.77C521.68 1056.77 516.03 1051.11 516.03 1044.13Z" stroke="#F7C369" stroke-width="3.7048" stroke-miterlimit="10"/>
<path d="M400.64 128.72C400.64 123.99 404.47 120.15 409.2 120.15C413.93 120.15 417.76 123.98 417.76 128.72C417.76 133.45 413.93 137.28 409.2 137.28C404.47 137.28 400.64 133.44 400.64 128.72Z" stroke="#F7C369" stroke-width="1.8524" stroke-miterlimit="10"/>
<path d="M551.19 1062.13C551.19 1057.4 555.03 1053.56 559.75 1053.56C564.48 1053.56 568.32 1057.4 568.32 1062.13C568.32 1066.85 564.49 1070.7 559.75 1070.7C555.03 1070.7 551.19 1066.86 551.19 1062.13Z" fill="#F7C369"/>
<path d="M459.65 20.84C459.65 17.92 462.02 15.55 464.94 15.55C467.87 15.55 470.24 17.92 470.24 20.84C470.24 23.77 467.87 26.14 464.94 26.14C462.03 26.13 459.65 23.76 459.65 20.84Z" fill="#F7C369"/>
<path d="M20.42 688.37C20.42 685.44 22.79 683.07 25.72 683.07C28.64 683.07 31.01 685.44 31.01 688.37C31.01 691.29 28.64 693.66 25.72 693.66C22.79 693.66 20.42 691.29 20.42 688.37Z" fill="#F7C369"/>
<path d="M727.24 94.88C727.24 90.15 731.08 86.31 735.81 86.31C740.54 86.31 744.38 90.15 744.38 94.88C744.38 99.61 740.54 103.44 735.81 103.44C731.08 103.44 727.24 99.61 727.24 94.88Z" stroke="#F7C369" stroke-width="1.8524" stroke-miterlimit="10"/>
<path d="M983.44 917.73C983.44 913.01 987.27 909.16 992 909.16C996.73 909.16 1000.56 913 1000.56 917.73C1000.56 922.46 996.73 926.3 992 926.3C987.27 926.3 983.44 922.47 983.44 917.73Z" stroke="#F7C369" stroke-width="1.8524" stroke-miterlimit="10"/>
<path d="M26.67 886.05C26.67 881.32 30.5 877.48 35.24 877.48C39.97 877.48 43.8 881.31 43.8 886.05C43.8 890.77 39.97 894.61 35.24 894.61C30.51 894.61 26.67 890.77 26.67 886.05Z" stroke="#F7C369" stroke-width="1.8524" stroke-miterlimit="10"/>
<path d="M811.07 149.73C811.07 140.6 818.48 133.19 827.61 133.19C836.75 133.19 844.15 140.59 844.15 149.73C844.15 158.86 836.75 166.26 827.61 166.26C818.48 166.26 811.07 158.86 811.07 149.73Z" stroke="#F7C369" stroke-width="3.577" stroke-miterlimit="10"/>
<path d="M25.72 745.85C25.72 736.72 33.12 729.32 42.25 729.32C51.39 729.32 58.79 736.72 58.79 745.85C58.79 754.99 51.39 762.38 42.25 762.38C33.12 762.39 25.72 754.99 25.72 745.85Z" stroke="#F7C369" stroke-width="3.577" stroke-miterlimit="10"/>
<path d="M798.89 1029.47C785.48 1011.82 805.42 991.84 823.11 1005.25C836.69 1022.97 816.57 1043.05 798.89 1029.47Z" stroke="#F7C369" stroke-width="3.577" stroke-miterlimit="10"/>
<path d="M439.45 979.13C439.45 974.02 443.6 969.88 448.71 969.88C453.82 969.88 457.96 974.03 457.96 979.13C457.96 984.24 453.82 988.39 448.71 988.39C443.6 988.39 439.45 984.25 439.45 979.13Z" fill="#F7C369"/>
<path d="M430.394 1044.55C440.447 1044.26 448.358 1035.87 448.063 1025.82C447.769 1015.76 439.38 1007.85 429.327 1008.15C419.274 1008.44 411.363 1016.83 411.658 1026.88C411.953 1036.94 420.341 1044.85 430.394 1044.55Z" fill="#F7C369"/>
</g>
<path d="M-34.48 1100.59H296.74C274.78 1079.12 234.99 1029.39 266.88 973.99C309.45 900.05 205.27 848.52 28.25 925.82C3.97002 936.43 -16.77 946.54 -34.48 956.11V1100.59Z" fill="#683C11"/>
<path d="M1449.05 441.2C1436.38 429.09 1419.79 421.89 1403.05 416.69C1348.74 399.81 1282.27 396.99 1250.52 349.8C1225.23 312.22 1232.68 258.87 1205.3 222.77C1180.72 190.37 1135.5 181.92 1094.85 183.1C1054.19 184.29 1012.97 192.55 973.27 183.7C900.42 167.44 849.7 97.77 777.99 77.04C741.48 66.49 698.49 67.87 671.54 41.07C664.07 33.64 658.25 23.71 658.68 13.18C659.22 0.289985 668.92 -10.49 679.68 -17.6C705.7 -34.79 738.58 -36.71 769.74 -37.79C980.35 -45.08 1191.44 -38.42 1401.17 -17.86C1414.13 -16.59 1427.94 -14.92 1437.93 -6.57001C1452.2 5.35999 1453.79 26.35 1454.28 44.94C1457.78 177.56 1461.28 310.18 1464.78 442.8C1465.73 478.72 1463.87 515.12 1465.22 550.78C1484.66 519.61 1475.21 466.22 1449.05 441.2Z" fill="#FFEDC3"/>
<path d="M1457.59 393.08C1446.31 382.3 1431.55 375.9 1416.66 371.27C1368.34 356.24 1309.19 353.74 1280.94 311.75C1258.43 278.3 1265.06 230.83 1240.7 198.71C1218.83 169.88 1178.6 162.36 1142.42 163.41C1106.24 164.47 1069.55 171.82 1034.23 163.94C969.4 149.48 924.26 87.47 860.45 69.02C827.97 59.63 789.72 60.86 765.74 37.01C759.09 30.4 753.91 21.56 754.29 12.19C754.77 0.719979 763.4 -8.87002 772.97 -15.2C796.12 -30.49 825.39 -32.2 853.11 -33.16C1040.52 -39.65 1228.36 -33.72 1415 -15.43C1426.54 -14.3 1438.81 -12.82 1447.71 -5.38002C1460.41 5.22998 1461.83 23.9 1462.27 40.45C1465.38 158.46 1468.49 276.47 1471.61 394.49C1472.45 426.46 1470.81 458.85 1472.01 490.58C1489.28 462.86 1480.88 415.35 1457.59 393.08Z" fill="#683C11"/>
<path d="M1480.28 352.08C1469 341.3 1454.24 334.89 1439.35 330.26C1391.02 315.24 1331.88 312.73 1303.62 270.74C1281.12 237.29 1287.75 189.82 1263.38 157.7C1241.51 128.87 1201.28 121.35 1165.1 122.4C1128.92 123.46 1092.23 130.81 1056.91 122.93C992.08 108.46 946.94 46.46 883.13 28.01C850.64 18.62 812.39 19.85 788.42 -4.00002C781.77 -10.62 776.59 -19.44 776.98 -28.82C777.46 -40.29 786.09 -49.87 795.67 -56.2C818.82 -71.49 848.08 -73.21 875.81 -74.17C1063.22 -80.66 1251.06 -74.73 1437.69 -56.43C1449.23 -55.3 1461.51 -53.82 1470.4 -46.39C1483.1 -35.78 1484.51 -17.1 1484.95 -0.56002C1488.06 117.46 1491.18 235.47 1494.29 353.48C1495.14 385.45 1493.49 417.84 1494.69 449.57C1511.97 421.85 1503.56 374.35 1480.28 352.08Z" fill="#E94E1B"/>
<path d="M1426.99 305.82C1369.12 270.75 1347.77 197.5 1300.91 148.69C1245.65 91.13 1160.1 73.3 1080.33 75.45C1000.56 77.6 922.05 96.64 842.33 100.08C802.9 101.79 760.96 98.91 728.43 76.56C695.9 54.2 678.01 6.64998 699.63 -26.36C714.77 -49.48 743.48 -59 770.23 -65.94C994.33 -124.08 1236.52 -110.21 1452.52 -26.86C1476.33 -17.67 1500.56 -7.17002 1518.17 11.31C1548.01 42.63 1552.69 89.51 1555.79 132.66C1558.21 166.36 1560.63 200.05 1563.05 233.75C1564.2 249.67 1573.67 284.24 1565.46 299.11C1543.07 339.7 1457.32 324.46 1426.99 305.82Z" stroke="#FDFDFD" stroke-width="2.2401" stroke-miterlimit="10" stroke-linecap="round"/>
<path d="M1405.19 328.37C1353.28 284.95 1343.24 209.33 1304.3 153.99C1258.37 88.74 1176.49 58.19 1097.31 48.26C1018.14 38.33 937.65 45.29 858.32 36.65C819.08 32.38 778.06 23.2 749.28 -3.82002C720.5 -30.84 710 -80.54 736.36 -109.91C754.82 -130.48 784.64 -135.55 812.13 -138.36C1042.44 -161.97 1279.76 -111.66 1480.68 3.35999C1502.83 16.05 1525.2 30.07 1539.81 51C1564.57 86.47 1562.11 133.53 1558.66 176.65C1555.96 210.32 1553.26 244 1550.56 277.67C1549.29 293.58 1553.42 329.18 1543.07 342.64C1514.82 379.41 1432.36 351.38 1405.19 328.37Z" stroke="#FDFDFD" stroke-width="0.7644" stroke-miterlimit="10" stroke-linecap="round"/>
<path d="M683.9 -208.92C667.16 -203.72 652.82 -192.71 640.14 -180.6C599.01 -141.31 564.29 -84.57 507.62 -79.72C462.48 -75.86 419.46 -108.27 374.61 -101.85C334.35 -96.09 305.01 -60.66 286.32 -24.54C267.62 11.58 254.84 51.64 227.82 82.04C178.24 137.84 92.7 148.36 39.76 200.99C12.81 227.79 -6.84996 266.04 -43.36 276.59C-53.48 279.51 -64.99 279.79 -73.98 274.29C-84.99 267.56 -89.7 253.85 -90.69 240.98C-93.09 209.89 -78.81 180.21 -64.62 152.45C31.25 -35.22 139.54 -216.54 259.33 -389.92C266.74 -400.63 274.89 -411.89 287.04 -416.58C304.39 -423.27 323.52 -414.47 340.01 -405.87C457.65 -344.55 575.3 -283.23 692.95 -221.91C724.81 -205.3 755.74 -186.01 787.56 -169.88C769.74 -201.99 718.48 -219.65 683.9 -208.92Z" fill="#FFEDC3"/>
<path d="M645.98 -239.75C631.08 -235.12 618.32 -225.33 607.04 -214.55C570.44 -179.6 539.55 -129.1 489.12 -124.78C448.95 -121.34 410.67 -150.18 370.76 -144.47C334.94 -139.34 308.83 -107.82 292.19 -75.68C275.55 -43.54 264.17 -7.89 240.13 19.16C196.02 68.81 119.9 78.18 72.79 125.01C48.81 148.85 31.32 182.89 -1.16996 192.27C-10.18 194.88 -20.42 195.12 -28.42 190.23C-38.21 184.24 -42.41 172.04 -43.3 160.6C-45.43 132.94 -32.72 106.52 -20.1 81.81C65.2 -85.19 161.57 -246.54 268.16 -400.82C274.75 -410.36 282.01 -420.37 292.82 -424.54C308.26 -430.5 325.28 -422.67 339.96 -415.02C444.64 -360.46 549.33 -305.89 654.02 -251.32C682.38 -236.54 709.9 -219.38 738.22 -205.02C722.37 -233.58 676.75 -249.3 645.98 -239.75Z" fill="#683C11"/>
<path d="M621.15 -279.49C606.25 -274.86 593.48 -265.07 582.2 -254.3C545.61 -219.34 514.71 -168.85 464.28 -164.53C424.11 -161.09 385.83 -189.93 345.92 -184.22C310.1 -179.09 283.99 -147.57 267.35 -115.43C250.71 -83.29 239.33 -47.64 215.29 -20.59C171.18 29.08 95.07 38.44 47.96 85.27C23.98 109.11 6.49003 143.16 -26 152.54C-35.01 155.14 -45.25 155.39 -53.25 150.5C-63.04 144.51 -67.23 132.32 -68.12 120.87C-70.25 93.21 -57.54 66.79 -44.92 42.08C40.38 -124.92 136.75 -286.26 243.35 -440.55C249.94 -450.09 257.2 -460.11 268.01 -464.28C283.45 -470.24 300.47 -462.4 315.14 -454.76C419.83 -400.19 524.51 -345.63 629.2 -291.06C657.56 -276.28 685.08 -259.12 713.4 -244.76C697.53 -273.32 651.92 -289.04 621.15 -279.49Z" fill="#E94E1B"/>
<path d="M554.83 -255.36C496.07 -221.79 421.68 -238.68 356.25 -221.41C279.1 -201.04 221.98 -134.9 185.14 -64.11C148.29 6.66998 126.83 84.55 91.14 155.92C73.49 191.22 50.62 226.5 15.28 244.08C-20.05 261.67 -70.31 254.23 -88.68 219.29C-101.54 194.83 -95.93 165.11 -89.01 138.35C-31.04 -85.78 98.66 -290.79 276.37 -439.18C295.96 -455.54 316.9 -471.62 341.6 -478.05C383.47 -488.94 426.73 -470.27 465.96 -452.03C496.59 -437.79 527.23 -423.55 557.86 -409.3C572.34 -402.57 607.16 -394.07 616.17 -379.68C640.81 -340.4 585.85 -272.83 554.83 -255.36Z" stroke="#FDFDFD" stroke-width="2.2401" stroke-miterlimit="10" stroke-linecap="round"/>
<path d="M563.97 -225.35C500.82 -201.05 429.82 -228.98 362.54 -221.79C283.19 -213.31 216.74 -156.56 169.63 -92.15C122.52 -27.75 89.53 46 43.47 111.16C20.69 143.39 -7.24996 174.8 -44.84 186.84C-82.43 198.88 -130.98 183.94 -143.86 146.63C-152.88 120.51 -142.84 91.98 -131.95 66.57C-40.7899 -146.24 118.39 -329.3 316.49 -449.13C338.33 -462.34 361.46 -475.08 386.85 -477.7C429.88 -482.13 469.83 -457.14 505.85 -433.19C533.98 -414.48 562.11 -395.77 590.24 -377.07C603.53 -368.23 636.67 -354.57 643.41 -338.98C661.81 -296.42 597.28 -237.93 563.97 -225.35Z" stroke="#FDFDFD" stroke-width="0.7644" stroke-miterlimit="10" stroke-linecap="round"/>
<path d="M681.5 1038.48L435.1 1284.87L436.1 1285.87L683.49 1038.48H681.5Z" fill="#683C11"/>
<path d="M624.29 1038.48L406.49 1256.27L407.49 1257.26L626.27 1038.48H624.29Z" fill="#683C11"/>
<path d="M662.43 1038.48L425.57 1275.35L426.56 1276.34L664.42 1038.48H662.43Z" fill="#683C11"/>
<path d="M643.36 1038.48L416.03 1265.81L417.02 1266.8L645.34 1038.48H643.36Z" fill="#683C11"/>
<path d="M738.73 1038.48L463.71 1313.49L464.71 1314.48L740.71 1038.48H738.73Z" fill="#683C11"/>
<path d="M757.8 1038.48L473.25 1323.02L474.25 1324.02L759.78 1038.48H757.8Z" fill="#683C11"/>
<path d="M776.87 1038.48L482.79 1332.57L483.79 1333.56L778.86 1038.48H776.87Z" fill="#683C11"/>
<path d="M700.58 1038.48L444.64 1294.42L445.63 1295.42L702.57 1038.48H700.58Z" fill="#683C11"/>
<path d="M719.65 1038.48L454.18 1303.95L455.17 1304.95L721.63 1038.48H719.65Z" fill="#683C11"/>
<path d="M40.47 39.01C38.28 39.01 36.51 40.78 36.51 42.98C36.51 45.17 38.28 46.94 40.47 46.94C42.66 46.94 44.44 45.17 44.44 42.98C44.44 40.78 42.66 39.01 40.47 39.01Z" fill="#683C11"/>
<path d="M70.69 39.01C68.49 39.01 66.72 40.78 66.72 42.98C66.72 45.17 68.49 46.94 70.69 46.94C72.88 46.94 74.65 45.17 74.65 42.98C74.66 40.78 72.88 39.01 70.69 39.01Z" fill="#683C11"/>
<path d="M100.91 39.01C98.72 39.01 96.94 40.78 96.94 42.98C96.94 45.17 98.72 46.94 100.91 46.94C103.1 46.94 104.88 45.17 104.88 42.98C104.88 40.78 103.1 39.01 100.91 39.01Z" fill="#683C11"/>
<path d="M131.12 39.01C128.93 39.01 127.15 40.78 127.15 42.98C127.15 45.17 128.93 46.94 131.12 46.94C133.32 46.94 135.09 45.17 135.09 42.98C135.1 40.78 133.32 39.01 131.12 39.01Z" fill="#683C11"/>
<path d="M161.34 46.94C163.54 46.94 165.31 45.17 165.31 42.98C165.31 40.78 163.54 39.01 161.34 39.01C159.16 39.01 157.38 40.78 157.38 42.98C157.38 45.17 159.16 46.94 161.34 46.94Z" fill="#683C11"/>
<path d="M40.47 62.43C38.28 62.43 36.51 64.21 36.51 66.4C36.51 68.59 38.28 70.36 40.47 70.36C42.66 70.36 44.44 68.59 44.44 66.4C44.44 64.21 42.66 62.43 40.47 62.43Z" fill="#683C11"/>
<path d="M70.69 62.43C68.49 62.43 66.72 64.21 66.72 66.4C66.72 68.59 68.49 70.36 70.69 70.36C72.88 70.36 74.65 68.59 74.65 66.4C74.66 64.21 72.88 62.43 70.69 62.43Z" fill="#683C11"/>
<path d="M100.91 62.43C98.72 62.43 96.94 64.21 96.94 66.4C96.94 68.59 98.72 70.36 100.91 70.36C103.1 70.36 104.88 68.59 104.88 66.4C104.88 64.21 103.1 62.43 100.91 62.43Z" fill="#683C11"/>
<path d="M131.12 62.43C128.93 62.43 127.15 64.21 127.15 66.4C127.15 68.59 128.93 70.36 131.12 70.36C133.32 70.36 135.09 68.59 135.09 66.4C135.1 64.21 133.32 62.43 131.12 62.43Z" fill="#683C11"/>
<path d="M161.34 62.43C159.16 62.43 157.38 64.21 157.38 66.4C157.38 68.59 159.16 70.36 161.34 70.36C163.54 70.36 165.31 68.59 165.31 66.4C165.32 64.21 163.54 62.43 161.34 62.43Z" fill="#683C11"/>
<path d="M40.47 85.85C38.28 85.85 36.51 87.62 36.51 89.82C36.51 92.01 38.28 93.79 40.47 93.79C42.66 93.79 44.44 92.01 44.44 89.82C44.44 87.62 42.66 85.85 40.47 85.85Z" fill="#683C11"/>
<path d="M70.69 85.85C68.49 85.85 66.72 87.62 66.72 89.82C66.72 92.01 68.49 93.79 70.69 93.79C72.88 93.79 74.65 92.01 74.65 89.82C74.66 87.62 72.88 85.85 70.69 85.85Z" fill="#683C11"/>
<path d="M100.91 85.85C98.72 85.85 96.94 87.62 96.94 89.82C96.94 92.01 98.72 93.79 100.91 93.79C103.1 93.79 104.88 92.01 104.88 89.82C104.88 87.62 103.1 85.85 100.91 85.85Z" fill="#683C11"/>
<path d="M131.12 85.85C128.93 85.85 127.15 87.62 127.15 89.82C127.15 92.01 128.93 93.79 131.12 93.79C133.32 93.79 135.09 92.01 135.09 89.82C135.1 87.62 133.32 85.85 131.12 85.85Z" fill="#683C11"/>
<path d="M161.34 85.85C159.16 85.85 157.38 87.62 157.38 89.82C157.38 92.01 159.16 93.79 161.34 93.79C163.54 93.79 165.31 92.01 165.31 89.82C165.32 87.62 163.54 85.85 161.34 85.85Z" fill="#683C11"/>
<path d="M40.47 109.27C38.28 109.27 36.51 111.04 36.51 113.23C36.51 115.43 38.28 117.2 40.47 117.2C42.66 117.2 44.44 115.43 44.44 113.23C44.44 111.04 42.66 109.27 40.47 109.27Z" fill="#683C11"/>
<path d="M70.69 109.27C68.49 109.27 66.72 111.04 66.72 113.23C66.72 115.43 68.49 117.2 70.69 117.2C72.88 117.2 74.65 115.43 74.65 113.23C74.66 111.04 72.88 109.27 70.69 109.27Z" fill="#683C11"/>
<path d="M100.91 109.27C98.72 109.27 96.94 111.04 96.94 113.23C96.94 115.43 98.72 117.2 100.91 117.2C103.1 117.2 104.88 115.43 104.88 113.23C104.88 111.04 103.1 109.27 100.91 109.27Z" fill="#683C11"/>
<path d="M131.12 109.27C128.93 109.27 127.15 111.04 127.15 113.23C127.15 115.43 128.93 117.2 131.12 117.2C133.32 117.2 135.09 115.43 135.09 113.23C135.1 111.04 133.32 109.27 131.12 109.27Z" fill="#683C11"/>
<path d="M161.34 109.27C159.16 109.27 157.38 111.04 157.38 113.23C157.38 115.43 159.16 117.2 161.34 117.2C163.54 117.2 165.31 115.43 165.31 113.23C165.32 111.04 163.54 109.27 161.34 109.27Z" fill="#683C11"/>
<path d="M40.47 132.69C38.28 132.69 36.51 134.47 36.51 136.65C36.51 138.84 38.28 140.62 40.47 140.62C42.66 140.62 44.44 138.84 44.44 136.65C44.44 134.47 42.66 132.69 40.47 132.69Z" fill="#683C11"/>
<path d="M70.69 132.69C68.49 132.69 66.72 134.47 66.72 136.65C66.72 138.84 68.49 140.62 70.69 140.62C72.88 140.62 74.65 138.84 74.65 136.65C74.66 134.47 72.88 132.69 70.69 132.69Z" fill="#683C11"/>
<path d="M100.91 132.69C98.72 132.69 96.94 134.47 96.94 136.65C96.94 138.84 98.72 140.62 100.91 140.62C103.1 140.62 104.88 138.84 104.88 136.65C104.88 134.47 103.1 132.69 100.91 132.69Z" fill="#683C11"/>
<path d="M131.12 132.69C128.93 132.69 127.15 134.47 127.15 136.65C127.15 138.84 128.93 140.62 131.12 140.62C133.32 140.62 135.09 138.84 135.09 136.65C135.1 134.47 133.32 132.69 131.12 132.69Z" fill="#683C11"/>
<path d="M161.34 132.69C159.16 132.69 157.38 134.47 157.38 136.65C157.38 138.84 159.16 140.62 161.34 140.62C163.54 140.62 165.31 138.84 165.31 136.65C165.32 134.47 163.54 132.69 161.34 132.69Z" fill="#683C11"/>
<path d="M40.47 156.11C38.28 156.11 36.51 157.88 36.51 160.08C36.51 162.27 38.28 164.04 40.47 164.04C42.66 164.04 44.44 162.27 44.44 160.08C44.44 157.88 42.66 156.11 40.47 156.11Z" fill="#683C11"/>
<path d="M70.69 156.11C68.49 156.11 66.72 157.88 66.72 160.08C66.72 162.27 68.49 164.04 70.69 164.04C72.88 164.04 74.65 162.27 74.65 160.08C74.66 157.88 72.88 156.11 70.69 156.11Z" fill="#683C11"/>
<path d="M100.91 156.11C98.72 156.11 96.94 157.88 96.94 160.08C96.94 162.27 98.72 164.04 100.91 164.04C103.1 164.04 104.88 162.27 104.88 160.08C104.88 157.88 103.1 156.11 100.91 156.11Z" fill="#683C11"/>
<path d="M131.12 156.11C128.93 156.11 127.15 157.88 127.15 160.08C127.15 162.27 128.93 164.04 131.12 164.04C133.32 164.04 135.09 162.27 135.09 160.08C135.1 157.88 133.32 156.11 131.12 156.11Z" fill="#683C11"/>
<path d="M161.34 156.11C159.16 156.11 157.38 157.88 157.38 160.08C157.38 162.27 159.16 164.04 161.34 164.04C163.54 164.04 165.31 162.27 165.31 160.08C165.32 157.88 163.54 156.11 161.34 156.11Z" fill="#683C11"/>
<path opacity="0.5" d="M1475.45 1041.5C1464.63 1030.68 1447.09 1030.68 1436.27 1041.5L1300.77 1177C1289.95 1187.82 1272.41 1187.82 1261.59 1177C1250.77 1166.18 1250.77 1148.64 1261.59 1137.82L1344.81 1054.6C1355.63 1043.78 1355.63 1026.24 1344.81 1015.42C1333.99 1004.6 1316.45 1004.6 1305.63 1015.42L1301.84 1019.21C1291.02 1030.03 1273.48 1030.03 1262.66 1019.21C1251.84 1008.39 1251.84 990.85 1262.66 980.03L1273.18 969.51C1284 958.69 1284 941.15 1273.18 930.33C1262.36 919.51 1244.82 919.51 1234 930.33L955.15 1209.18C944.33 1220 944.33 1237.54 955.15 1248.36C965.97 1259.18 983.51 1259.18 994.33 1248.36L1001.93 1240.76C1012.75 1229.94 1030.29 1229.94 1041.11 1240.76C1051.93 1251.58 1051.93 1269.12 1041.11 1279.94L1006.96 1314.08C996.14 1324.9 996.14 1342.44 1006.96 1353.26C1017.78 1364.08 1035.32 1364.08 1046.14 1353.26L1143.12 1256.28C1153.94 1245.46 1171.48 1245.46 1182.3 1256.28C1193.12 1267.1 1193.12 1284.64 1182.3 1295.46L1041.45 1436.31C1030.63 1447.13 1030.63 1464.67 1041.45 1475.49C1052.27 1486.31 1069.81 1486.31 1080.63 1475.49L1264.84 1291.28L1291.22 1264.89L1475.43 1080.69C1486.27 1069.86 1486.27 1052.32 1475.45 1041.5Z" fill="#EEDDD3"/>
<path d="M1091.39 1056.87H1071.37" stroke="#FD875E" stroke-width="6.1263" stroke-miterlimit="10" stroke-linecap="round" stroke-linejoin="round"/>
<path d="M1091.39 1083.04H1071.37" stroke="#FD875E" stroke-width="6.1263" stroke-miterlimit="10" stroke-linecap="round" stroke-linejoin="round"/>
<path d="M1091.39 1069.95H1071.37" stroke="#FD875E" stroke-width="6.1263" stroke-miterlimit="10" stroke-linecap="round" stroke-linejoin="round"/>
</g>
<defs>
<clipPath id="clip0_224_896">
<rect width="1080" height="1080" fill="white"/>
</clipPath>
</defs>
</svg>
