<svg width="122" height="147" viewBox="0 0 122 147" fill="none" xmlns="http://www.w3.org/2000/svg">
<path d="M10.22 47.11H109.65C111.04 47.11 112.04 45.77 111.63 44.45C105.18 23.87 86.79 8.57 64.57 6.69C64.74 6.19 64.84 5.65 64.84 5.09C64.84 2.38 62.64 0.190002 59.94 0.190002C57.24 0.190002 55.04 2.38 55.04 5.09C55.04 5.65 55.14 6.19 55.31 6.69C33.09 8.57 14.69 23.87 8.25 44.45C7.82 45.77 8.83 47.11 10.22 47.11Z" fill="#683C11"/>
<path d="M118.98 54.69C118.73 52.62 116.96 51.08 114.87 51.08H4.99001C2.91001 51.08 1.14 52.62 0.880005 54.69C0.640005 56.65 0.51001 58.64 0.51001 60.65H119.34C119.35 58.63 119.22 56.65 118.98 54.69Z" fill="#683C11"/>
<path d="M13.784 66.1308L10.8259 65.6925V63.8666H21.3068V65.6925L17.6915 66.1308V88.8454L27.1133 88.5167L29.2679 82.3816L31.4955 82.7103L30.2174 91H10.7529V89.2106L13.784 88.8454V66.1308ZM44.8902 91.4017C42.4069 91.4017 40.301 90.8296 38.5724 89.6853C36.8682 88.5411 35.5779 86.9343 34.7015 84.8649C33.825 82.7711 33.3868 80.3487 33.3868 77.5976C33.3868 74.7979 33.9102 72.3389 34.9571 70.2209C36.0283 68.1028 37.4891 66.4716 39.3393 65.3274C41.1896 64.1588 43.2712 63.5745 45.584 63.5745C49.382 63.5745 52.2791 64.7796 54.2755 67.1898C56.2962 69.5757 57.3065 72.8867 57.3065 77.1229C57.3065 79.9714 56.7588 82.479 55.6632 84.6457C54.592 86.7882 53.1069 88.4559 51.2079 89.6488C49.3333 90.8174 47.2274 91.4017 44.8902 91.4017ZM45.3649 65.4734C43.0034 65.4734 41.1409 66.5081 39.7776 68.5775C38.4142 70.6226 37.7325 73.6293 37.7325 77.5976C37.7325 81.2495 38.3899 84.1467 39.7045 86.2891C41.0435 88.4072 42.906 89.4662 45.2919 89.4662C47.6291 89.4662 49.4794 88.4072 50.8427 86.2891C52.2304 84.171 52.9243 81.1278 52.9243 77.1594C52.9243 73.4832 52.267 70.6226 50.9523 68.5775C49.6376 66.5081 47.7752 65.4734 45.3649 65.4734ZM72.7422 91.4017C70.1129 91.4017 67.8366 90.8174 65.9133 89.6488C64.0143 88.4802 62.5657 86.8734 61.5675 84.8283C60.5693 82.7589 60.0703 80.4217 60.0703 77.8167C60.0703 74.8222 60.6546 72.2537 61.8232 70.1113C63.0161 67.9689 64.6594 66.3499 66.7532 65.2543C68.8469 64.1344 71.2328 63.5745 73.9108 63.5745C76.3698 63.5745 79.2061 63.9518 82.4197 64.7065L82.091 71.0243H79.4982L78.6218 66.642C78.2809 66.3742 77.6966 66.1186 76.8689 65.8751C76.0654 65.6317 74.9821 65.5099 73.6187 65.5099C71.8415 65.5099 70.2711 65.9482 68.9078 66.8246C67.5444 67.7011 66.4732 69.0036 65.6941 70.7321C64.9394 72.4607 64.5621 74.5544 64.5621 77.0133C64.5621 79.2775 64.8664 81.3469 65.475 83.2215C66.108 85.0961 67.0575 86.6056 68.3235 87.7498C69.6138 88.8697 71.1841 89.4297 73.0344 89.4297C74.203 89.4297 75.3107 89.2958 76.3576 89.028C77.4045 88.7358 78.2079 88.3585 78.7678 87.8959V79.7522L74.1665 79.3871V77.2325H84.8299V79.3871L82.7119 79.7157V89.5393C82.1762 89.5636 81.2876 89.7705 80.046 90.1601C78.78 90.5496 77.5871 90.8539 76.4672 91.073C75.3472 91.2921 74.1056 91.4017 72.7422 91.4017ZM98.2774 91.4017C95.7941 91.4017 93.6882 90.8296 91.9596 89.6853C90.2554 88.5411 88.9651 86.9343 88.0887 84.8649C87.2122 82.7711 86.774 80.3487 86.774 77.5976C86.774 74.7979 87.2974 72.3389 88.3443 70.2209C89.4155 68.1028 90.8763 66.4716 92.7265 65.3274C94.5768 64.1588 96.6584 63.5745 98.9712 63.5745C102.769 63.5745 105.666 64.7796 107.663 67.1898C109.683 69.5757 110.694 72.8867 110.694 77.1229C110.694 79.9714 110.146 82.479 109.05 84.6457C107.979 86.7882 106.494 88.4559 104.595 89.6488C102.72 90.8174 100.615 91.4017 98.2774 91.4017ZM98.7521 65.4734C96.3906 65.4734 94.5281 66.5081 93.1648 68.5775C91.8014 70.6226 91.1197 73.6293 91.1197 77.5976C91.1197 81.2495 91.777 84.1467 93.0917 86.2891C94.4307 88.4072 96.2932 89.4662 98.6791 89.4662C101.016 89.4662 102.867 88.4072 104.23 86.2891C105.618 84.171 106.311 81.1278 106.311 77.1594C106.311 73.4832 105.654 70.6226 104.339 68.5775C103.025 66.5081 101.162 65.4734 98.7521 65.4734ZM13.784 112.131L10.899 111.693V109.867H20.8321V111.693L17.6915 112.131V121.954H30.546V112.131L27.588 111.693V109.867H37.375V111.693L34.4901 112.131V134.845L37.375 135.211V137H27.5515V135.211L30.546 134.845V124.218H17.6915V134.845L20.8686 135.211V137H10.8259V135.211L13.784 134.845V112.131ZM43.953 112.131L40.9584 111.693V109.867H59.5464L60.0577 115.527H57.9761L56.9171 111.985L47.8605 111.766V122.064L53.9591 121.954L54.4703 118.923H56.4789V127.323H54.4703L53.9591 124.182L47.8605 124.072V134.955L58.1587 134.59L60.0942 129.988L62.2488 130.646L61.1898 137H40.9219V135.211L43.953 134.845V112.131ZM64.709 135.211L67.74 134.845V112.131L64.8916 111.656V109.867H69.6755C70.3572 109.867 71.2824 109.818 72.451 109.721C73.6682 109.623 74.6177 109.574 75.2994 109.574C78.8782 109.574 81.4224 110.159 82.9318 111.327C84.4656 112.472 85.2325 114.285 85.2325 116.769C85.2325 118.497 84.7456 120.08 83.7718 121.516C82.8223 122.952 81.5076 123.926 79.8277 124.438C80.6068 124.851 81.325 125.57 81.9823 126.592C82.664 127.59 83.4918 128.99 84.4656 130.792C85.2203 132.155 85.7925 133.153 86.182 133.786C86.5959 134.419 86.9854 134.772 87.3506 134.845L88.7748 135.211V137H83.7352C83.3457 137 82.9075 136.586 82.4206 135.758C81.9336 134.906 81.2885 133.604 80.4851 131.851C79.6086 129.928 78.8417 128.406 78.1844 127.286C77.5514 126.142 76.9184 125.411 76.2854 125.095C73.6804 125.095 72.1345 125.083 71.6475 125.058V134.845L75.2629 135.211V137H64.709V135.211ZM75.9933 123.123C77.5514 123.123 78.7809 122.612 79.6817 121.589C80.5825 120.567 81.0328 119.045 81.0328 117.024C81.0328 115.247 80.5703 113.896 79.6451 112.971C78.7443 112.021 77.174 111.546 74.9342 111.546C74.1552 111.546 73.3761 111.595 72.597 111.693C72.1101 111.741 71.7936 111.766 71.6475 111.766V123.086C72.0127 123.111 72.7674 123.123 73.9117 123.123H75.9933ZM93.4529 112.131L90.4584 111.693V109.867H109.046L109.558 115.527H107.476L106.417 111.985L97.3604 111.766V122.064L103.459 121.954L103.97 118.923H105.979V127.323H103.97L103.459 124.182L97.3604 124.072V134.955L107.659 134.59L109.594 129.988L111.749 130.646L110.69 137H90.4219V135.211L93.4529 134.845V112.131Z" fill="#683C11"/>
</svg>
